<svg height="512pt" viewBox="0 -21 512 512" width="512pt" xmlns="http://www.w3.org/2000/svg"><path d="m449.945312 384.621094v-63.664063h-27.617187c6.457031-9.992187 10.222656-21.878906 10.222656-34.636719 0-16.785156-6.5-32.070312-17.101562-43.5 16.46875-6.539062 31.519531-16.566406 44.261719-29.71875l8.183593-8.445312-43.808593-71.355469-13.578126 14.011719c-7.5 7.738281-16.730468 13.117188-26.84375 15.804688v-113.359376c7.257813-4.886718 12.042969-13.179687 12.042969-22.566406 0-14.992187-12.199219-27.191406-27.191406-27.191406s-27.191406 12.199219-27.191406 27.191406c0 9.386719 4.785156 17.679688 12.042969 22.566406v113.359376c-10.113282-2.6875-19.34375-8.066407-26.84375-15.804688l-13.578126-14.011719-43.808593 71.355469 8.183593 8.445312c12.746094 13.152344 27.792969 23.179688 44.261719 29.71875-10.601562 11.429688-17.101562 26.714844-17.101562 43.5 0 12.757813 3.765625 24.644532 10.222656 34.636719h-27.617187v63.664063h-62.714844v-63.664063h-27.617188c6.457032-9.992187 10.222656-21.878906 10.222656-34.636719 0-16.785156-6.5-32.070312-17.101562-43.5 16.46875-6.539062 31.515625-16.566406 44.261719-29.71875l8.183593-8.445312-43.808593-71.355469-13.578125 14.011719c-7.5 7.738281-16.730469 13.117188-26.84375 15.804688v-113.359376c7.257812-4.886718 12.042968-13.179687 12.042968-22.566406 0-14.992187-12.199218-27.191406-27.191406-27.191406-14.992187 0-27.191406 12.199219-27.191406 27.191406 0 9.386719 4.785156 17.679688 12.039062 22.566406v113.359376c-10.109374-2.6875-19.34375-8.066407-26.839843-15.804688l-13.578125-14.011719-43.808594 71.355469 8.183594 8.445312c12.746094 13.152344 27.792968 23.179688 44.261718 29.71875-10.601562 11.429688-17.101562 26.714844-17.101562 43.5 0 12.757813 3.765625 24.644532 10.222656 34.636719h-27.613281v63.664063h-61.515625l44.738281 86.039062h422.523438l44.738281-86.039062zm-115.164062-98.300782c0-18.601562 15.132812-33.734374 33.734375-33.734374s33.734375 15.132812 33.734375 33.734374c0 18.601563-15.132812 33.734376-33.734375 33.734376-18.597656 0-33.734375-15.132813-33.734375-33.734376zm-15.34375-105.679687c14.40625 9.605469 31.3125 14.753906 49.082031 14.753906 17.765625 0 34.671875-5.148437 49.078125-14.753906l11.800782 19.226563c-17.152344 13.972656-38.386719 21.554687-60.882813 21.554687s-43.726563-7.582031-60.882813-21.554687zm-210.226562 105.679687c0-18.601562 15.132812-33.734374 33.730468-33.734374 18.601563 0 33.734375 15.132812 33.734375 33.734374 0 18.601563-15.132812 33.734376-33.734375 33.734376-18.597656 0-33.730468-15.132813-33.730468-33.734376zm-15.347657-105.679687c14.40625 9.605469 31.3125 14.753906 49.078125 14.753906 17.769532 0 34.675782-5.152343 49.082032-14.753906l11.804687 19.226563c-17.15625 13.972656-38.386719 21.554687-60.882813 21.554687-22.5 0-43.730468-7.582031-60.886718-21.554687zm223.523438 170.617187h102.257812v33.367188h-102.257812zm-225.574219 0h102.257812v33.367188h-102.257812zm357.054688 89.105469h-385.734376l-13.226562-25.4375h412.1875zm0 0"/></svg>