<svg id="Layer_1" height="512" viewBox="0 0 512 512" width="512" xmlns="http://www.w3.org/2000/svg" data-name="Layer 1"><path d="m395.9 17.869c-15.742 19.6-36.224 36.164-56.032 52.186-29.493 23.855-59.981 48.514-75.724 83.824-38.931 38.1-96.622 49.785-97.2 49.9a5 5 0 0 0 -2.914 8.071c9.341 11.435 23.973 18.382 40.144 19.06q1.3.054 2.585.054c15.192 0 29.3-5.643 39.013-15.688 10.769-11.134 15.859-25.645 20.781-39.679 1.959-5.585 3.984-11.36 6.318-16.72.031-.068.062-.138.09-.207 14.661-33.491 43.1-56.492 73.2-80.839 20.219-16.354 41.125-33.265 57.54-53.7a5 5 0 0 0 -7.8-6.262z"/><path d="m141 437.362v52.612a6.286 6.286 0 0 0 6.314 6.026h217.372a6.286 6.286 0 0 0 6.314-6.026v-52.6c-35 21.746-74.123 33.226-115 33.226s-80-11.483-115-33.238z"/><path d="m142.216 426.043a204.636 204.636 0 0 0 227.583 0 206.009 206.009 0 0 0 84.515-120.043h-396.632a202.938 202.938 0 0 0 84.534 120.043zm-51.053-80.392a5 5 0 0 1 6.837 1.824 183.957 183.957 0 0 0 56.476 60.293 5 5 0 1 1 -5.571 8.3 194.036 194.036 0 0 1 -59.561-63.589 5 5 0 0 1 1.819-6.828zm-11.874-26.6a5 5 0 0 1 6.466 2.862c1.266 3.276 2.641 6.553 4.091 9.738a5 5 0 1 1 -9.1 4.14c-1.528-3.361-2.98-6.818-4.315-10.274a5 5 0 0 1 2.858-6.466z"/><path d="m55.434 296h401.129a199.819 199.819 0 0 0 3.872-35h-408.87a200.013 200.013 0 0 0 3.869 35z"/></svg>